<svg width="110" height="110" viewBox="0 0 110 110" fill="none" xmlns="http://www.w3.org/2000/svg">
<circle cx="55" cy="55" r="55" fill="#FFF2F2"/>
<circle cx="57" cy="59" r="43" fill="white"/>
<path d="M89 83L77 91V87H58L66 79H77V75L89 83Z" fill="#ED3237"/>
<path d="M25 35L37 27V31H56L48 39H37V43L25 35Z" fill="#ED3237"/>
<path d="M63.96 27L25 65.96L50.04 91L89 52.04L63.96 27ZM30.56 65.96L63.96 32.56L83.44 52.04L50.04 85.44L30.56 65.96Z" fill="#ED3237"/>
<path d="M41.6792 65.96L38.8792 68.76L47.2391 77.12L50.0391 74.32L52.9991 77.08L63.9591 65.96C62.104 67.7611 59.6148 68.76 57.0293 68.741C54.4437 68.7219 51.9695 67.6863 50.1412 65.858C48.3129 64.0297 47.2773 61.5555 47.2582 58.9699C47.2391 56.3844 48.238 53.8951 50.0391 52.04L38.9192 63L41.6792 65.96Z" fill="#ED3237"/>
<path d="M75.0793 49.2799L66.7193 40.9199L63.9193 43.7199L60.9993 40.9199L50.0393 52.0399C51.8944 50.2388 54.3837 49.2399 56.9692 49.259C59.5547 49.2781 62.029 50.3137 63.8573 52.142C65.6856 53.9703 66.7211 56.4445 66.7402 59.03C66.7593 61.6156 65.7604 64.1048 63.9593 65.9599L75.0793 54.9999L72.2793 52.1999L75.0793 49.2799Z" fill="#ED3237"/>
</svg>
