<svg width="155" height="33" viewBox="0 0 155 33" fill="none" xmlns="http://www.w3.org/2000/svg">
<path d="M46.3226 23.7513C46.3226 29.1675 44.7377 32.2719 39.0564 32.2719C36.8101 32.2719 33.6402 31.8757 31.5278 31.1145V8.75415H34.7405V14.5466C34.7712 15.7773 34.6602 17.0073 34.4098 18.2126C36.2257 16.2969 38.338 15.3391 40.4874 15.3391C44.4327 15.3277 46.3226 17.7051 46.3226 23.7513ZM43.0216 23.7513C42.9874 19.5552 42.3602 18.1014 39.3557 18.1014C37.7365 18.1014 36.448 18.9936 34.6977 20.3477L34.7319 29.102C36.1238 29.4521 37.5557 29.6179 38.9908 29.5951C41.8984 29.5638 42.9874 28.11 43.0216 23.7513Z" fill="#333333"/>
<path d="M52.3398 27.2177C52.3398 28.5718 53.0667 29.2645 54.455 29.2645H55.9402L56.3051 31.7445C55.6437 32.0296 54.0588 32.1721 53.2321 32.1721C50.7549 32.1721 49.1699 30.6869 49.1699 27.9446V8.75415H52.374L52.3398 27.2177Z" fill="#333333"/>
<path d="M73.7085 20.6441V31.8756H71.1971L70.835 29.3328C69.6435 30.5529 67.3316 32.1835 64.3926 32.1835C61.4536 32.1835 59.4724 30.5643 59.4724 27.6225V25.9377C59.4724 23.3722 61.1229 21.9098 64.0334 21.9098H70.5072V20.6526C70.473 18.6715 69.7803 18.0443 67.3031 18.0443C65.7182 18.0443 62.9758 18.2439 60.4616 18.4406L60.1765 16.0945C62.7633 15.6473 65.3798 15.3938 68.0044 15.3362C71.7244 15.3277 73.7085 16.582 73.7085 20.6441ZM65.054 29.464C66.5078 29.464 68.6543 28.8368 70.5044 27.1835V24.31H64.6235C63.1383 24.3784 62.7079 25.1367 62.7079 26.3596V27.2148C62.7079 28.7998 63.4348 29.464 65.054 29.464Z" fill="#333333"/>
<path d="M90.2476 16.1544L89.8172 18.2012C88.332 18.1014 86.5817 18.0359 85.4586 18.0359C81.7927 18.0359 80.5355 19.3244 80.5355 23.817C80.5355 28.3096 81.7927 29.5952 85.4586 29.5952C87.0504 29.5962 88.6401 29.4752 90.2134 29.2332L90.4985 31.3797C88.6896 31.9888 86.7914 32.2904 84.8828 32.2719C79.2356 32.2719 77.186 30.0256 77.186 23.817C77.186 17.6083 79.267 15.3278 84.8828 15.3278C86.3822 15.3278 88.6171 15.5245 90.2476 16.1544Z" fill="#333333"/>
<path d="M98.6628 23.9537H96.6474C96.7501 24.7871 96.8053 25.6256 96.8128 26.4651V31.8814H93.6086V8.75415H96.8128L96.8441 18.8939C96.8475 19.8116 96.7817 20.7283 96.6474 21.6362H98.6628L103.483 15.7582H107.189L102.343 21.602C101.998 22.047 101.598 22.4473 101.154 22.7935V22.8591C101.607 23.2629 102.002 23.7272 102.329 24.2388L107.716 31.8757H104.011L98.6628 23.9537Z" fill="#333333"/>
<path d="M113.44 27.2177C113.44 28.5718 114.167 29.2645 115.552 29.2645H117.04L117.402 31.7445C116.744 32.0296 115.156 32.1721 114.332 32.1721C111.855 32.1721 110.267 30.6869 110.267 27.9446V8.75415H113.474L113.44 27.2177Z" fill="#333333"/>
<path d="M124.427 9.81175V11.6618C124.427 12.2889 124.142 12.6196 123.5 12.6196H121.969C121.342 12.6196 121.046 12.2889 121.046 11.6618V9.81175C121.031 9.68682 121.045 9.56021 121.086 9.44139C121.128 9.32257 121.195 9.2146 121.284 9.12553C121.373 9.03646 121.481 8.96859 121.599 8.92699C121.718 8.8854 121.845 8.87114 121.969 8.88529H123.489C123.615 8.86936 123.743 8.88224 123.863 8.92299C123.983 8.96374 124.093 9.03129 124.183 9.12052C124.273 9.20975 124.342 9.31833 124.384 9.43807C124.427 9.55781 124.441 9.6856 124.427 9.81175ZM124.327 31.8757H121.157V15.7582H124.327V31.8757Z" fill="#333333"/>
<path d="M140.912 15.8893L140.647 18.2012C138.632 18.1356 136.551 18.0359 134.535 18.0359C131.662 18.0359 130.772 18.0701 130.772 19.8204C130.772 21.3711 131.531 21.5051 133.053 21.9327L137.614 23.0558C140.222 23.7514 141.38 24.7662 141.38 27.5826C141.38 31.545 139.199 32.2377 134.378 32.2377C132.229 32.2439 130.082 32.0895 127.956 31.7759L128.187 29.3985C129.672 29.5296 131.608 29.5638 133.703 29.5638C137.238 29.5638 138.264 29.2331 138.264 27.5826C138.264 26.0946 137.337 25.9293 135.821 25.533L131.328 24.4099C128.652 23.7172 127.662 22.4629 127.662 19.8204C127.662 16.1544 129.544 15.2935 134.036 15.3277C136.338 15.3605 138.635 15.5481 140.912 15.8893Z" fill="#333333"/>
<path d="M150.011 18.2354V27.2177C150.011 28.7371 150.581 29.2645 152.123 29.2645H154.466L154.831 31.7445C153.584 32.0222 152.31 32.1656 151.031 32.1721C148.292 32.1721 146.838 30.553 146.838 27.6482V18.2411H143.899V15.9264L146.841 15.7639V11.0347H150.011V15.7582H155V18.2354H150.011Z" fill="#333333"/>
<path d="M13.4064 15.4018L10.8266 12.8363C10.5416 13.1213 10.1254 13.2325 9.84885 12.9503C7.85341 10.9035 5.9948 9.0107 4.17894 7.06372C3.95389 6.82921 3.79546 6.53892 3.71999 6.22278C3.60678 5.76957 3.36645 5.35814 3.02729 5.03692L0.775285 2.78491C0.276584 3.51574 0.0312485 4.38993 0.0768762 5.27352C0.116785 9.6692 0.1567 14.0763 0.0113172 18.4606C-0.108409 22.1407 0.698312 24.8175 3.5575 27.1636C5.16782 28.5407 6.68663 30.0215 8.10427 31.5963C8.37034 31.8801 8.69057 32.1078 9.04606 32.2659C9.40155 32.424 9.78511 32.5092 10.1741 32.5167C10.5631 32.5241 10.9496 32.4536 11.3109 32.3092C11.6722 32.1648 12.0009 31.9496 12.2776 31.6761L17.155 26.8557C17.601 26.4156 17.9549 25.8911 18.1959 25.3128C18.437 24.7346 18.5605 24.114 18.5592 23.4875C18.5578 22.861 18.4317 22.241 18.1882 21.6637C17.9447 21.0865 17.5886 20.5635 17.1408 20.1253L13.415 16.4822C13.3511 16.4184 13.3005 16.3426 13.2659 16.2592C13.2313 16.1758 13.2135 16.0865 13.2135 15.9962C13.2135 15.9059 13.2313 15.8165 13.2659 15.7331C13.3005 15.6497 13.3511 15.574 13.415 15.5102L13.4064 15.4018ZM12.4201 26.3426L11.9355 26.8044C11.4685 27.2559 10.843 27.5064 10.1934 27.5022C9.54377 27.4979 8.92168 27.2392 8.4606 26.7816C7.05523 25.3733 5.62991 23.9309 4.21885 22.5056C3.97507 22.2527 3.82606 21.9235 3.79696 21.5735C3.77986 18.5375 3.79695 15.5016 3.82546 12.4514C3.82546 12.3859 3.92523 12.3231 3.93379 12.3146L12.4315 20.7724C12.7996 21.1374 13.0915 21.572 13.29 22.0508C13.4885 22.5297 13.5898 23.0433 13.588 23.5617C13.5861 24.08 13.4811 24.5929 13.2792 25.0703C13.0772 25.5478 12.7823 25.9802 12.4116 26.3426H12.4201Z" fill="#333333"/>
<path d="M4.78635 4.62927C8.2663 3.45338 12.0362 3.45338 15.5161 4.62927C16.625 4.997 16.8901 6.33965 16.0521 7.27181C14.3274 9.19884 12.5857 10.7952 10.6359 12.9047L13.0076 15.7553L19.7636 8.5603C19.8351 8.44743 19.8917 8.32573 19.9318 8.19827C20.958 4.82882 19.6125 2.07225 16.4198 1.00041C13.4014 -0.0228481 10.1732 -0.266045 7.0355 0.293453C5.3759 0.612053 3.76109 1.13086 2.22648 1.8385C1.70418 2.06216 1.2549 2.42751 0.929443 2.89323L3.72306 5.86644C3.76092 5.57921 3.88165 5.30924 4.07048 5.08953C4.25932 4.86981 4.50808 4.70987 4.78635 4.62927Z" fill="#ED3237"/>
</svg>
